# xmcd
#
# Track frame offsets:
#	150
#	9296
#	31468
#	43644
#	66190
#	71196
#	102950
#	109532
#	123167
#	130301
#	152480
#	162413
#	182617
#	190636
#	206965
#	214276
#	230051
#	236942
#	263438
#	272118
#
# Disc length: 3931 seconds
#
# Revision: 1
# Processed by: cddbd v1.5.2PL0 Copyright (c) Steve Scherf et al.
# Submitted via: audiograbber 1.83.01
#
DISCID=200f5914
DTITLE=Blue Holger D - På vej hjem igen
DYEAR=2011
DGENRE=Blues
TTITLE0=Hovedet - kroppen
TTITLE1=På vej hjem igen
TTITLE2=Ud i hele verden
TTITLE3=Filmen er knækket
TTITLE4=Beslutningen
TTITLE5=Sålænge jeg er til
TTITLE6=Hundene
TTITLE7=John Hardy
TTITLE8=Hvor er du
TTITLE9=Frida og Johnny
TTITLE10=Kvinden og spillet
TTITLE11=Roselil
TTITLE12=Vejløs
TTITLE13=It takes a lot to laugh
TTITLE14=Fest i hjertet
TTITLE15=Johnny Skrot
TTITLE16=Brumbasse
TTITLE17=Natekspress
TTITLE18=Har været sagt før
TTITLE19=Drømmepige
EXTD=
EXTT0=
EXTT1=
EXTT2=
EXTT3=
EXTT4=
EXTT5=
EXTT6=
EXTT7=
EXTT8=
EXTT9=
EXTT10=
EXTT11=
EXTT12=
EXTT13=
EXTT14=
EXTT15=
EXTT16=
EXTT17=
EXTT18=
EXTT19=
PLAYORDER=
